<?xml version="1.0" encoding="utf-8"?>
<!-- Generator: Adobe Illustrator 22.1.0, SVG Export Plug-In . SVG Version: 6.00 Build 0)  -->
<svg version="1.1" id="Ebene_1" xmlns="http://www.w3.org/2000/svg" xmlns:xlink="http://www.w3.org/1999/xlink" x="0px" y="0px"
	 viewBox="0 0 251.156 90" style="enable-background:new 0 0 251.156 90;" xml:space="preserve">
<style type="text/css">
	.st0{fill:#006C66;}
</style>
<path class="st0" d="M35.617,39.226H5.784l-0.292,0.006l-0.286,0.023l-0.28,0.036l-0.28,0.054L4.372,39.41l-0.274,0.084
	l-0.262,0.089L3.574,39.69l-0.256,0.12l-0.25,0.124l-0.239,0.143l-0.238,0.149l-0.226,0.167l-0.221,0.173L1.936,40.75l-0.202,0.191
	l-0.197,0.203l-0.185,0.214L1.18,41.572l-0.167,0.232l-0.155,0.233l-0.143,0.244l-0.131,0.25l-0.113,0.25l-0.107,0.263l-0.096,0.267
	l-0.083,0.274l-0.066,0.274l-0.053,0.28L0.03,44.425l-0.024,0.292L0,45.009l0.006,0.292l0.024,0.285l0.036,0.286l0.053,0.28
	l0.066,0.28L0.262,46.7l0.096,0.268l0.107,0.262l0.113,0.256l0.131,0.245l0.143,0.244l0.149,0.232l0.167,0.226l0.172,0.221
	l0.185,0.208l0.191,0.203l0.202,0.191l0.209,0.184l0.22,0.173l0.226,0.161l0.239,0.154l0.244,0.138l0.244,0.13l0.256,0.12
	l0.262,0.101l0.268,0.095l0.268,0.077l0.28,0.066l0.28,0.053L5.2,50.744l0.292,0.024l0.292,0.006h29.833l-0.292-0.006l-0.286-0.024
	l-0.286-0.036l-0.28-0.053l-0.28-0.066l-0.268-0.077l-0.268-0.095l-0.262-0.101l-0.256-0.12l-0.25-0.13l-0.238-0.144l-0.239-0.148
	l-0.226-0.161l-0.22-0.179l-0.209-0.178l-0.202-0.197l-0.191-0.203l-0.184-0.208l-0.173-0.22l-0.167-0.227l-0.149-0.232
	l-0.143-0.244l-0.131-0.244l-0.119-0.257l-0.101-0.262l-0.095-0.268l-0.078-0.268l-0.065-0.274l-0.054-0.28l-0.036-0.286
	l-0.024-0.285l-0.005-0.292l0.005-0.292l0.024-0.286l0.036-0.286l0.054-0.28l0.065-0.28l0.078-0.268l0.095-0.268l0.101-0.262
	l0.119-0.256l0.131-0.244l0.143-0.244l0.149-0.239l0.167-0.226l0.173-0.22l0.184-0.209l0.191-0.202l0.202-0.191l0.209-0.185
	l0.22-0.178l0.226-0.161l0.239-0.155l0.238-0.136l0.25-0.131l0.256-0.12l0.262-0.107l0.268-0.089l0.268-0.084l0.28-0.065l0.28-0.054
	l0.286-0.036l0.286-0.023L35.617,39.226L35.617,39.226z M59.673,39.226h29.839l0.292,0.006l0.286,0.023l0.28,0.036l0.285,0.054
	l0.274,0.065l0.268,0.084l0.268,0.089l0.262,0.107l0.251,0.12l0.25,0.124l0.244,0.143l0.233,0.149l0.225,0.167l0.221,0.173
	l0.214,0.184l0.203,0.191l0.19,0.203l0.185,0.214l0.179,0.214l0.161,0.232l0.154,0.233l0.143,0.244l0.131,0.25l0.119,0.25
	l0.102,0.263l0.095,0.267l0.077,0.274l0.072,0.274l0.048,0.28l0.041,0.286l0.024,0.292l0.006,0.292l-0.006,0.292l-0.024,0.285
	l-0.041,0.286l-0.048,0.28l-0.065,0.28L95.027,46.7l-0.089,0.268L94.83,47.23l-0.119,0.256l-0.131,0.245l-0.136,0.244l-0.156,0.232
	l-0.16,0.226l-0.173,0.221l-0.185,0.208l-0.19,0.203l-0.203,0.191l-0.214,0.184l-0.221,0.173l-0.226,0.161l-0.232,0.154
	l-0.244,0.138l-0.25,0.13l-0.257,0.12l-0.256,0.101l-0.268,0.095l-0.273,0.077l-0.275,0.066l-0.286,0.053l-0.279,0.036l-0.292,0.024
	l-0.292,0.006H59.673l0.292-0.006l0.291-0.024l0.286-0.036l0.28-0.053l0.274-0.066l0.274-0.077l0.268-0.095l0.262-0.101l0.251-0.12
	l0.25-0.13l0.244-0.144l0.232-0.148l0.232-0.161l0.215-0.179l0.214-0.178l0.203-0.197l0.19-0.203l0.185-0.208l0.173-0.22
	l0.166-0.227l0.149-0.232l0.143-0.244l0.131-0.244l0.114-0.257l0.106-0.262l0.096-0.268l0.077-0.268l0.066-0.274l0.053-0.28
	l0.036-0.286l0.024-0.285l0.006-0.292l-0.006-0.292l-0.024-0.286l-0.036-0.286l-0.053-0.28l-0.066-0.28l-0.083-0.268l-0.09-0.268
	l-0.106-0.262l-0.12-0.256l-0.131-0.244l-0.143-0.244l-0.154-0.239l-0.161-0.226l-0.173-0.22l-0.185-0.209l-0.196-0.202
	l-0.203-0.191l-0.208-0.185l-0.221-0.178l-0.226-0.161l-0.238-0.155l-0.244-0.136l-0.245-0.131l-0.255-0.12l-0.263-0.107
	l-0.268-0.089L61.09,39.41l-0.274-0.065l-0.28-0.054l-0.285-0.036l-0.286-0.023L59.673,39.226L59.673,39.226z M84.223,56.313
	l-0.971,0.953l-4.091-4.086h1.929L84.223,56.313L84.223,56.313z M76.033,64.491l-0.958,0.964L62.806,53.18h1.917L76.033,64.491
	L76.033,64.491z M67.85,72.668l-0.965,0.965L46.439,53.18h1.929L67.85,72.668L67.85,72.668z M59.673,80.857l-0.965,0.953
	L30.084,53.18h1.918L59.673,80.857L59.673,80.857z M51.483,89.035L50.53,90L13.717,53.18h1.917L51.483,89.035L51.483,89.035z
	 M10.584,33.687l0.965-0.953l4.098,4.079h-1.93L10.584,33.687L10.584,33.687z M18.774,25.509l0.952-0.965l12.276,12.269h-1.918
	L18.774,25.509L18.774,25.509z M26.951,17.332l0.965-0.965l20.452,20.446h-1.929L26.951,17.332L26.951,17.332z M35.128,9.142
	l0.971-0.953l28.624,28.624h-1.917L35.128,9.142L35.128,9.142z M43.318,0.965L44.276,0L81.09,36.813h-1.917L43.318,0.965
	L43.318,0.965z M57.261,44.717l-0.024-0.292l-0.036-0.286l-0.054-0.28l-0.065-0.274l-0.077-0.274l-0.096-0.267l-0.101-0.263
	l-0.119-0.25l-0.132-0.25l-0.136-0.244l-0.155-0.233l-0.161-0.232l-0.173-0.214l-0.184-0.214l-0.191-0.203l-0.203-0.191
	l-0.208-0.184l-0.22-0.173l-0.227-0.167l-0.238-0.149l-0.238-0.143l-0.25-0.124l-0.256-0.12l-0.256-0.107l-0.269-0.089l-0.273-0.084
	l-0.274-0.065l-0.28-0.054l-0.286-0.036l-0.292-0.023l-0.292-0.006h-0.256l-0.238,0.011l-0.22,0.012l-0.203,0.018l-0.185,0.018
	l-0.166,0.024l-0.155,0.03l-0.143,0.029l-0.131,0.037l-0.125,0.041l-0.107,0.036l-0.108,0.041l-0.19,0.09l-0.179,0.089l-0.196,0.113
	l-0.233,0.143l-0.238,0.155l-0.232,0.161l-0.215,0.155l-0.166,0.125l-0.119,0.083l-0.042,0.03l-0.042-0.03l-0.119-0.083
	l-0.173-0.125L47.1,40.274l-0.233-0.161l-0.244-0.155l-0.226-0.143l-0.191-0.113l-0.19-0.089l-0.209-0.09l-0.113-0.041l-0.125-0.036
	l-0.125-0.041l-0.143-0.037l-0.149-0.029l-0.155-0.03l-0.166-0.024l-0.185-0.018l-0.191-0.018l-0.208-0.012l-0.215-0.011H43.8
	l-0.297,0.006l-0.287,0.023l-0.285,0.036l-0.281,0.054l-0.279,0.065l-0.268,0.084l-0.268,0.089l-0.262,0.107l-0.257,0.12
	l-0.249,0.124l-0.239,0.143l-0.238,0.149l-0.226,0.167l-0.221,0.173l-0.208,0.184l-0.203,0.191l-0.19,0.203l-0.185,0.214
	l-0.178,0.214l-0.161,0.232l-0.149,0.233l-0.143,0.244l-0.131,0.25l-0.113,0.25l-0.108,0.263l-0.095,0.267l-0.077,0.274
	l-0.066,0.274l-0.054,0.28l-0.035,0.286l-0.024,0.292l-0.006,0.292l0.006,0.292l0.024,0.285l0.035,0.286l0.054,0.28l0.066,0.274
	l0.077,0.268l0.095,0.268l0.108,0.262l0.113,0.257l0.131,0.244l0.143,0.244l0.149,0.232l0.161,0.227l0.178,0.22l0.185,0.208
	l0.19,0.203l0.203,0.197l0.208,0.178l0.221,0.179l0.226,0.161l0.238,0.148l0.239,0.144l0.249,0.13l0.257,0.12l0.262,0.101
	l0.268,0.095l0.268,0.077l0.279,0.066l0.281,0.053l0.285,0.036l0.287,0.024l0.297,0.006h0.214l0.209-0.012l0.203-0.012l0.184-0.018
	l0.179-0.017l0.173-0.03l0.161-0.03l0.154-0.03l0.143-0.036l0.137-0.035l0.125-0.042l0.119-0.042l0.113-0.041l0.102-0.042
	l0.101-0.042l0.089-0.047l0.191-0.107l0.226-0.143l0.244-0.161l0.233-0.161l0.214-0.149l0.173-0.125l0.119-0.089l0.042-0.03
	l0.042,0.03l0.119,0.089l0.166,0.125l0.215,0.155l0.232,0.161l0.238,0.155l0.12,0.077l0.113,0.066l0.101,0.059l0.095,0.048
	l0.096,0.047l0.094,0.042l0.108,0.042l0.107,0.041l0.119,0.042l0.125,0.042l0.137,0.035l0.143,0.036l0.149,0.03l0.161,0.03
	l0.173,0.03l0.178,0.017l0.185,0.018l0.202,0.012l0.209,0.012h0.22l0.292-0.006l0.292-0.024l0.286-0.036l0.28-0.053l0.274-0.066
	l0.273-0.077l0.269-0.095l0.256-0.101l0.256-0.12l0.25-0.13l0.238-0.144l0.238-0.148l0.227-0.161l0.22-0.179l0.208-0.178
	l0.203-0.197l0.191-0.203l0.184-0.208l0.173-0.22l0.161-0.227l0.155-0.232l0.136-0.244l0.132-0.244l0.119-0.257l0.101-0.262
	l0.096-0.268l0.077-0.268l0.065-0.274l0.054-0.28l0.036-0.286l0.024-0.285l0.005-0.292L57.261,44.717L57.261,44.717z M55.819,45.229
	l-0.018,0.221l-0.029,0.214l-0.036,0.214l-0.048,0.209l-0.06,0.202l-0.071,0.203l-0.077,0.196l-0.084,0.191l-0.095,0.19
	l-0.107,0.179l-0.113,0.173l-0.119,0.173l-0.131,0.161l-0.137,0.16l-0.143,0.149l-0.149,0.143l-0.161,0.137l-0.161,0.131
	l-0.173,0.119l-0.172,0.113l-0.185,0.101l-0.184,0.096l-0.191,0.09l-0.197,0.077l-0.202,0.065l-0.203,0.06l-0.208,0.048
	l-0.215,0.041l-0.214,0.024l-0.221,0.018l-0.22,0.006l-0.22-0.006l-0.215-0.018l-0.22-0.024l-0.208-0.041l-0.209-0.048l-0.208-0.06
	l-0.197-0.065l-0.196-0.077l-0.191-0.09l-0.191-0.096l-0.178-0.101l-0.173-0.113l-0.173-0.119l-0.16-0.131l-0.161-0.137
	l-0.149-0.143l-0.143-0.149l-0.137-0.16l-0.131-0.161l-0.12-0.173l-0.112-0.173l-0.108-0.179l-0.095-0.19l-0.089-0.191l-0.078-0.196
	l-0.065-0.203l-0.06-0.202l-0.048-0.209l-0.041-0.214l-0.024-0.214l-0.018-0.221l-0.006-0.22l0.006-0.226l0.018-0.215l0.024-0.22
	l0.041-0.209l0.048-0.208l0.06-0.209l0.065-0.202l0.078-0.197l0.089-0.19l0.095-0.185l0.108-0.178l0.112-0.179l0.12-0.167
	l0.131-0.167l0.137-0.154l0.143-0.156l0.149-0.143l0.161-0.136l0.16-0.126l0.173-0.124l0.173-0.108l0.178-0.107l0.191-0.095
	l0.191-0.09l0.196-0.077l0.197-0.066l0.208-0.059l0.209-0.048l0.208-0.041l0.22-0.024l0.215-0.018l0.22-0.006l0.22,0.006
	l0.221,0.018l0.214,0.024l0.215,0.041l0.208,0.048l0.203,0.059l0.202,0.066l0.197,0.077l0.191,0.09l0.184,0.095l0.185,0.107
	l0.172,0.108l0.173,0.124l0.161,0.126l0.161,0.136l0.149,0.143l0.143,0.156l0.137,0.154l0.131,0.167l0.119,0.167l0.113,0.179
	l0.107,0.178l0.095,0.185l0.084,0.19l0.077,0.197l0.071,0.202l0.06,0.209l0.048,0.208l0.036,0.209l0.029,0.22l0.018,0.215
	l0.006,0.226L55.819,45.229L55.819,45.229z M67.025,10.539c-0.077,0.529-0.202,1.135-0.637,1.228
	c-0.233,0.047-0.342,0.047-0.466,0.047c-0.156,0-0.249,0.031-0.249,0.108c0,0.14,0.125,0.172,0.28,0.172
	c0.497,0,1.243-0.047,1.539-0.047c0.279,0,0.979,0.047,1.632,0.047c0.233,0,0.373-0.032,0.373-0.172
	c0-0.077-0.109-0.108-0.233-0.108c-0.156,0-0.373-0.016-0.653-0.078c-0.264-0.062-0.466-0.201-0.466-0.497
	c0-0.249,0.015-0.451,0.047-0.731L69,4.322h0.062c0.544,1.165,1.477,3.124,1.616,3.45c0.187,0.436,1.415,2.814,1.788,3.529
	c0.249,0.466,0.404,0.777,0.544,0.777s0.218-0.14,0.575-0.871l3.389-7.056h0.062l0.933,6.839c0.062,0.435,0.015,0.638-0.078,0.669
	c-0.109,0.046-0.171,0.093-0.171,0.17c0,0.093,0.093,0.14,0.45,0.171c0.622,0.047,2.768,0.094,3.157,0.094
	c0.217,0,0.403-0.047,0.403-0.172c0-0.093-0.108-0.108-0.248-0.108c-0.202,0-0.513-0.016-0.964-0.155
	c-0.466-0.14-0.622-0.591-0.762-1.57l-1.414-9.607C78.295,0.156,78.202,0,78.062,0s-0.218,0.124-0.342,0.373l-4.228,8.876
	l-4.244-8.767C69.046,0.078,68.953,0,68.829,0c-0.125,0-0.218,0.14-0.265,0.404L67.025,10.539L67.025,10.539z M88.852,8.767
	c0.062,0,0.109,0.016,0.14,0.094l1.057,2.658c0.062,0.155-0.031,0.279-0.125,0.295c-0.14,0.015-0.171,0.062-0.171,0.14
	c0,0.093,0.156,0.093,0.405,0.108c1.15,0.032,2.145,0.032,2.626,0.032c0.514,0,0.591-0.032,0.591-0.14
	c0-0.094-0.062-0.14-0.186-0.14c-0.155,0-0.311-0.016-0.513-0.047c-0.249-0.046-0.638-0.217-1.166-1.414
	c-0.871-2.006-3.156-7.415-3.482-8.146c-0.14-0.295-0.202-0.42-0.404-0.42c-0.14,0-0.249,0.156-0.404,0.529l-3.575,8.316
	c-0.28,0.669-0.514,1.073-1.136,1.166c-0.124,0-0.279,0.016-0.403,0.016c-0.109,0-0.156,0.062-0.156,0.14
	c0,0.108,0.078,0.14,0.249,0.14c0.715,0,1.446-0.047,1.585-0.047c0.436,0,1.073,0.047,1.524,0.047c0.139,0,0.217-0.032,0.217-0.14
	c0-0.078-0.031-0.14-0.202-0.14h-0.202c-0.42,0-0.544-0.14-0.544-0.373c0-0.156,0.062-0.482,0.202-0.809l0.731-1.771
	c0.031-0.078,0.046-0.094,0.124-0.094L88.852,8.767L88.852,8.767z M85.914,8.037c-0.047,0-0.078-0.031-0.047-0.093l1.322-3.343
	c0.015-0.046,0.031-0.124,0.078-0.124c0.031,0,0.046,0.078,0.062,0.124l1.29,3.358c0.015,0.047,0,0.078-0.062,0.078H85.914
	L85.914,8.037z M101.788,3.451c0.42-0.575,0.669-0.933,0.979-1.011c0.187-0.046,0.358-0.077,0.498-0.077s0.217-0.062,0.217-0.14
	c0-0.093-0.093-0.124-0.248-0.124c-0.513,0-1.073,0.031-1.337,0.031s-0.901-0.031-1.43-0.031c-0.202,0-0.295,0.031-0.295,0.124
	c0,0.093,0.093,0.14,0.171,0.14c0.108,0,0.295,0,0.435,0.046c0.14,0.031,0.233,0.125,0.233,0.218c0,0.109-0.046,0.296-0.155,0.482
	c-0.234,0.373-1.446,2.161-1.85,2.752c-0.544-0.902-1.104-1.819-1.71-2.876c-0.077-0.14-0.14-0.311-0.14-0.389
	s0.063-0.156,0.187-0.187c0.108-0.031,0.248-0.046,0.326-0.046c0.124,0,0.218-0.047,0.218-0.14c0-0.093-0.094-0.124-0.28-0.124
	c-0.513,0-1.353,0.031-1.539,0.031c-0.653,0-1.756-0.031-2.083-0.031c-0.171,0-0.28,0.031-0.28,0.108
	c0,0.094,0.062,0.156,0.14,0.156c0.14,0,0.358,0.031,0.575,0.093c0.482,0.155,0.762,0.436,1.104,0.964l2.41,3.762l-2.674,3.606
	c-0.467,0.637-0.684,0.855-1.088,0.964c-0.203,0.046-0.405,0.062-0.498,0.062c-0.108,0-0.186,0.077-0.186,0.155
	s0.062,0.125,0.202,0.125h0.233c0.217,0,0.886-0.047,1.15-0.047c0.342,0,1.244,0.047,1.322,0.047h0.248
	c0.187,0,0.28-0.032,0.28-0.125c0-0.078-0.093-0.155-0.171-0.155c-0.109,0-0.217-0.016-0.295-0.016
	c-0.125,0-0.249-0.077-0.265-0.201c-0.015-0.141,0.062-0.343,0.203-0.56l2.004-3.109c0.622,1.01,1.368,2.254,2.161,3.544
	c0.109,0.171,0.016,0.264-0.046,0.28c-0.125,0.031-0.187,0.093-0.187,0.17c0,0.094,0.124,0.125,0.482,0.14
	c1.119,0.032,2.207,0.032,2.534,0.032h0.404c0.156,0,0.264-0.047,0.264-0.14c0-0.078-0.077-0.14-0.171-0.14
	c-0.124,0-0.342-0.016-0.528-0.078c-0.296-0.093-0.514-0.233-0.746-0.529c-0.342-0.419-2.612-4.01-3.047-4.662L101.788,3.451
	L101.788,3.451z M103.836,7.151c-0.264,0-0.326,0.016-0.373,0.202l-0.233,1.072c-0.031,0.156,0,0.28,0.125,0.28
	c0.124,0,0.372-0.171,0.684-0.249c0.543-0.155,3.388-0.653,4.01-0.746c0.435-0.078,0.699-0.124,0.699-0.342
	c0-0.186-0.217-0.217-0.497-0.217L103.836,7.151L103.836,7.151z M110.821,7.586c0,1.43,0,2.658-0.078,3.311
	c-0.062,0.45-0.14,0.793-0.451,0.855c-0.139,0.031-0.326,0.062-0.559,0.062c-0.187,0-0.249,0.046-0.249,0.124
	c0,0.109,0.109,0.156,0.311,0.156c0.622,0,1.601-0.047,1.959-0.047c0.403,0,1.383,0.047,2.409,0.047
	c0.171,0,0.295-0.047,0.295-0.156c0-0.078-0.078-0.124-0.249-0.124c-0.233,0-0.575-0.031-0.792-0.062
	c-0.467-0.062-0.56-0.405-0.607-0.839c-0.078-0.669-0.078-1.897-0.078-3.327V1.368c0-0.171,0.047-0.264,0.125-0.295
	c0.14-0.047,0.373-0.063,0.606-0.063c0.358,0,0.995,0.094,1.554,0.607c0.871,0.777,0.918,1.819,0.918,2.331
	c0,1.586-1.213,2.566-2.083,2.566c-0.327,0-0.435,0.046-0.435,0.17c0,0.109,0.108,0.124,0.186,0.14
	c0.078,0.015,0.249,0.015,0.327,0.015c2.207,0,3.823-1.554,3.823-3.761c0-0.824-0.435-1.524-0.777-1.85
	c-0.248-0.233-0.948-0.886-2.891-0.886c-0.715,0-1.616,0.047-2.254,0.047c-0.435,0-1.414-0.047-2.238-0.047
	c-0.233,0-0.342,0.031-0.342,0.14s0.093,0.14,0.264,0.14c0.218,0,0.482,0.016,0.607,0.047c0.512,0.109,0.637,0.357,0.668,0.885
	c0.031,0.498,0.031,0.933,0.031,3.296L110.821,7.586L110.821,7.586z M122.228,5.923c0-2.006,0-2.378,0.031-2.799
	c0.031-0.466,0.14-0.652,0.513-0.715c0.155-0.031,0.373-0.046,0.529-0.046c0.171,0,0.248-0.047,0.248-0.14
	c0-0.093-0.093-0.124-0.295-0.124c-0.529,0-1.648,0.031-1.974,0.031c-0.374,0-1.244-0.031-1.881-0.031
	c-0.202,0-0.295,0.031-0.295,0.124c0,0.093,0.077,0.14,0.232,0.14c0.172,0,0.343,0.015,0.452,0.046
	c0.435,0.125,0.559,0.265,0.59,0.715c0.016,0.421,0.016,0.793,0.016,2.799v2.331c0,1.213,0,2.254-0.062,2.814
	c-0.047,0.388-0.125,0.637-0.405,0.699c-0.124,0.031-0.279,0.047-0.482,0.047c-0.171,0-0.217,0.077-0.217,0.14
	c0,0.093,0.093,0.14,0.264,0.14c0.28,0,0.622-0.016,0.949-0.032c0.326,0,0.621-0.015,0.777-0.015c0.559,0,1.134,0.015,1.818,0.031
	c0.684,0.031,1.477,0.046,2.457,0.046c0.714,0,0.777-0.062,0.869-0.357c0.11-0.389,0.203-1.368,0.203-1.523
	s-0.032-0.296-0.124-0.296c-0.11,0-0.14,0.079-0.156,0.203c-0.031,0.248-0.171,0.621-0.342,0.793
	c-0.342,0.357-0.871,0.372-1.601,0.372c-1.057,0-1.586-0.077-1.818-0.279c-0.296-0.249-0.296-1.089-0.296-2.783L122.228,5.923
	L122.228,5.923z M133.64,8.767c0.062,0,0.108,0.016,0.14,0.094l1.056,2.658c0.063,0.155-0.031,0.279-0.124,0.295
	c-0.139,0.015-0.171,0.062-0.171,0.14c0,0.093,0.156,0.093,0.404,0.108c1.15,0.032,2.145,0.032,2.627,0.032
	c0.514,0,0.591-0.032,0.591-0.14c0-0.094-0.062-0.14-0.187-0.14c-0.155,0-0.311-0.016-0.512-0.047
	c-0.249-0.046-0.638-0.217-1.167-1.414c-0.87-2.006-3.155-7.415-3.481-8.146c-0.14-0.295-0.203-0.42-0.405-0.42
	c-0.14,0-0.248,0.156-0.403,0.529l-3.575,8.316c-0.281,0.669-0.514,1.073-1.135,1.166c-0.124,0-0.281,0.016-0.405,0.016
	c-0.109,0-0.155,0.062-0.155,0.14c0,0.108,0.078,0.14,0.249,0.14c0.715,0,1.446-0.047,1.585-0.047c0.435,0,1.072,0.047,1.523,0.047
	c0.14,0,0.218-0.032,0.218-0.14c0-0.078-0.032-0.14-0.202-0.14h-0.202c-0.42,0-0.544-0.14-0.544-0.373
	c0-0.156,0.062-0.482,0.202-0.809l0.73-1.771c0.031-0.078,0.047-0.094,0.125-0.094L133.64,8.767L133.64,8.767z M130.701,8.037
	c-0.046,0-0.077-0.031-0.046-0.093l1.321-3.343c0.016-0.046,0.032-0.124,0.078-0.124c0.031,0,0.047,0.078,0.063,0.124l1.289,3.358
	c0.016,0.047,0,0.078-0.062,0.078H130.701L130.701,8.037z M140.995,4.897h0.047c0.265,0.233,1.71,1.834,3.203,3.264
	c1.43,1.383,3.14,3.016,3.994,3.808c0.14,0.14,0.327,0.28,0.56,0.28c0.109,0,0.217-0.125,0.217-0.42l0.156-8.331
	c0.015-0.746,0.124-0.98,0.498-1.089c0.17-0.046,0.279-0.046,0.419-0.046c0.156,0,0.233-0.062,0.233-0.14
	c0-0.109-0.124-0.124-0.311-0.124c-0.668,0-1.181,0.031-1.336,0.031c-0.296,0-1.027-0.031-1.742-0.031
	c-0.201,0-0.341,0.015-0.341,0.124c0,0.078,0.046,0.14,0.217,0.14c0.186,0,0.513,0,0.715,0.077c0.327,0.125,0.451,0.358,0.466,1.167
	l0.141,5.875h-0.063c-0.202-0.186-2.021-2.052-2.953-2.968c-1.99-1.944-4.041-4.042-4.213-4.213
	c-0.233-0.233-0.419-0.436-0.591-0.436c-0.14,0-0.232,0.187-0.232,0.451l-0.124,7.835c-0.016,1.15-0.063,1.508-0.421,1.601
	c-0.186,0.046-0.435,0.062-0.622,0.062c-0.124,0-0.217,0.062-0.217,0.14c0,0.124,0.124,0.14,0.311,0.14
	c0.699,0,1.352-0.047,1.477-0.047c0.249,0,0.886,0.047,1.772,0.047c0.186,0,0.31-0.032,0.31-0.14c0-0.078-0.078-0.14-0.233-0.14
	c-0.217,0-0.482-0.016-0.715-0.093c-0.263-0.093-0.435-0.405-0.466-1.43L140.995,4.897L140.995,4.897z M157.677,12.265
	c0.886,0,1.927-0.078,2.471-0.296c0.234-0.093,0.296-0.155,0.358-0.388c0.14-0.451,0.295-1.601,0.295-1.757
	c0-0.109-0.062-0.233-0.155-0.233c-0.109,0-0.14,0.062-0.171,0.264c-0.047,0.249-0.234,0.622-0.467,0.886
	c-0.544,0.606-1.212,0.7-2.424,0.7c-1.835,0-4.26-1.493-4.26-4.633c0-1.29,0.249-2.564,1.259-3.435
	c0.622-0.528,1.384-0.746,2.581-0.746c1.259,0,2.175,0.327,2.643,0.778c0.341,0.341,0.512,0.808,0.528,1.227
	c0,0.171,0.031,0.28,0.14,0.28c0.124,0,0.171-0.14,0.186-0.326c0.016-0.264,0.016-0.995,0.047-1.43
	c0.031-0.466,0.062-0.622,0.062-0.731c0-0.078-0.047-0.14-0.201-0.155c-0.406-0.047-0.856-0.14-1.369-0.218
	c-0.622-0.077-1.135-0.14-1.99-0.14c-2.036,0-3.341,0.528-4.337,1.399c-1.305,1.166-1.601,2.72-1.601,3.622
	c0,1.275,0.358,2.767,1.71,3.902C154.226,11.876,155.811,12.265,157.677,12.265 M165.257,5.923c0-2.006,0-2.378,0.016-2.799
	c0.03-0.466,0.14-0.652,0.512-0.715c0.171-0.031,0.25-0.046,0.389-0.046c0.108,0,0.187-0.047,0.187-0.14
	c0-0.093-0.094-0.124-0.296-0.124c-0.451,0-1.43,0.031-1.757,0.031c-0.326,0-1.197-0.031-1.912-0.031
	c-0.202,0-0.31,0.031-0.31,0.124c0,0.093,0.093,0.14,0.233,0.14c0.201,0,0.435,0.015,0.544,0.046
	c0.435,0.125,0.559,0.265,0.59,0.715c0.016,0.421,0.016,0.793,0.016,2.799v2.331c0,1.213,0,2.254-0.062,2.814
	c-0.047,0.388-0.124,0.637-0.404,0.699c-0.124,0.031-0.28,0.047-0.483,0.047c-0.169,0-0.216,0.077-0.216,0.14
	c0,0.093,0.092,0.14,0.263,0.14c0.544,0,1.415-0.047,1.726-0.047c0.342,0,1.321,0.047,2.082,0.047c0.156,0,0.266-0.047,0.266-0.14
	c0-0.063-0.078-0.14-0.188-0.14c-0.171,0-0.481-0.016-0.668-0.047c-0.342-0.062-0.466-0.311-0.496-0.684
	c-0.032-0.575-0.032-1.616-0.032-2.829V7.058h0.062l0.139,0.186c0.296,0.404,2.923,3.451,3.514,3.963
	c0.59,0.514,1.041,0.793,1.772,0.855c0.295,0.032,0.544,0.032,0.948,0.032h1.197c0.249,0,0.327-0.047,0.327-0.14
	c0-0.078-0.078-0.14-0.188-0.14c-0.155,0-0.434,0-0.838-0.171c-0.732-0.296-1.26-0.871-1.865-1.415
	c-0.529-0.497-3.218-3.295-3.7-3.917c0.419-0.482,2.456-2.409,2.891-2.813c0.575-0.544,1.01-0.824,1.446-0.98
	c0.248-0.093,0.59-0.155,0.793-0.155c0.124,0,0.201-0.047,0.201-0.14c0-0.093-0.092-0.124-0.233-0.124
	c-0.419,0-1.182,0.031-1.601,0.031c-0.373,0-1.119-0.031-1.414-0.031c-0.141,0-0.218,0.031-0.218,0.124
	c0,0.078,0.062,0.109,0.187,0.14c0.124,0.031,0.186,0.124,0.186,0.264c0,0.234-0.296,0.544-0.683,0.98
	c-0.406,0.45-2.395,2.409-2.861,2.907h-0.062L165.257,5.923L165.257,5.923z M171.926,7.151c-0.265,0-0.327,0.016-0.373,0.202
	l-0.233,1.072c-0.032,0.156,0,0.28,0.124,0.28s0.373-0.171,0.684-0.249c0.544-0.155,3.389-0.653,4.01-0.746
	c0.436-0.078,0.699-0.124,0.699-0.342c0-0.186-0.217-0.217-0.497-0.217L171.926,7.151L171.926,7.151z M178.911,7.586
	c0,1.507,0,2.736-0.078,3.389c-0.047,0.45-0.14,0.715-0.451,0.777c-0.14,0.031-0.326,0.062-0.56,0.062
	c-0.186,0-0.249,0.046-0.249,0.124c0,0.109,0.11,0.156,0.311,0.156c0.622,0,1.602-0.047,1.959-0.047c0.42,0,1.4,0.047,2.425,0.047
	c0.171,0,0.296-0.047,0.296-0.156c0-0.078-0.078-0.124-0.249-0.124c-0.234,0-0.576-0.031-0.793-0.062
	c-0.466-0.062-0.575-0.342-0.622-0.762c-0.062-0.668-0.062-1.897-0.062-3.404V4.85c0-2.363,0-2.798,0.031-3.296
	c0.031-0.544,0.156-0.808,0.575-0.885c0.187-0.031,0.311-0.047,0.466-0.047c0.156,0,0.249-0.031,0.249-0.155
	c0-0.094-0.125-0.125-0.326-0.125c-0.59,0-1.508,0.047-1.897,0.047c-0.45,0-1.43-0.047-2.021-0.047
	c-0.248,0-0.372,0.031-0.372,0.125c0,0.124,0.093,0.155,0.248,0.155c0.187,0,0.389,0.016,0.559,0.062
	c0.343,0.078,0.498,0.342,0.53,0.87c0.031,0.498,0.031,0.933,0.031,3.296V7.586L178.911,7.586z M186.152,4.897h0.046
	c0.264,0.233,1.71,1.834,3.202,3.264c1.43,1.383,3.14,3.016,3.995,3.808c0.141,0.14,0.326,0.28,0.56,0.28
	c0.109,0,0.218-0.125,0.218-0.42l0.155-8.331c0.015-0.746,0.124-0.98,0.497-1.089c0.172-0.046,0.28-0.046,0.42-0.046
	c0.155,0,0.233-0.062,0.233-0.14c0-0.109-0.124-0.124-0.31-0.124c-0.669,0-1.182,0.031-1.338,0.031c-0.294,0-1.025-0.031-1.74-0.031
	c-0.202,0-0.343,0.015-0.343,0.124c0,0.078,0.047,0.14,0.218,0.14c0.187,0,0.513,0,0.715,0.077c0.327,0.125,0.451,0.358,0.466,1.167
	l0.14,5.875h-0.062c-0.202-0.186-2.02-2.052-2.953-2.968c-1.99-1.944-4.041-4.042-4.213-4.213c-0.233-0.233-0.419-0.436-0.59-0.436
	c-0.14,0-0.234,0.187-0.234,0.451l-0.124,7.835c-0.016,1.15-0.063,1.508-0.419,1.601c-0.187,0.046-0.436,0.062-0.622,0.062
	c-0.124,0-0.218,0.062-0.218,0.14c0,0.124,0.124,0.14,0.311,0.14c0.7,0,1.353-0.047,1.477-0.047c0.248,0,0.886,0.047,1.772,0.047
	c0.187,0,0.311-0.032,0.311-0.14c0-0.078-0.078-0.14-0.234-0.14c-0.217,0-0.481-0.016-0.715-0.093
	c-0.264-0.093-0.435-0.405-0.466-1.43L186.152,4.897L186.152,4.897z M199.255,12.265c0.73,0,1.632-0.078,2.285-0.544
	c0.994-0.7,1.368-1.493,1.368-2.472c0-1.197-0.561-2.207-2.363-3.202l-0.56-0.311c-1.228-0.684-1.446-1.15-1.446-1.741
	c0-0.902,0.886-1.414,1.866-1.414c0.886,0,1.321,0.373,1.523,0.621c0.295,0.343,0.358,0.746,0.358,0.871
	c0,0.156,0.046,0.233,0.139,0.233c0.109,0,0.172-0.14,0.172-0.42c0-1.041,0.046-1.414,0.046-1.585c0-0.094-0.062-0.14-0.186-0.171
	c-0.358-0.093-1.057-0.218-1.943-0.218c-1.896,0-3.451,1.042-3.451,2.658c0,1.166,0.528,2.052,2.145,3l0.793,0.467
	c1.212,0.715,1.352,1.29,1.352,1.865c0,0.933-0.714,1.679-1.897,1.679c-0.854,0-1.88-0.327-2.176-1.306
	c-0.077-0.233-0.124-0.513-0.124-0.684c0-0.093-0.016-0.217-0.14-0.217c-0.108,0-0.171,0.139-0.171,0.341
	c-0.015,0.218-0.077,1.042-0.077,1.757c0,0.295,0.046,0.357,0.264,0.45C197.623,12.187,198.462,12.265,199.255,12.265
	 M207.753,8.254c0,1.213,0,2.254-0.062,2.814c-0.047,0.388-0.124,0.637-0.404,0.699c-0.109,0.031-0.28,0.047-0.482,0.047
	c-0.171,0-0.218,0.077-0.218,0.14c0,0.093,0.093,0.14,0.265,0.14c0.544,0,1.476-0.047,1.787-0.047c0.388,0,1.306,0.047,2.208,0.047
	c0.155,0,0.264-0.047,0.264-0.14c0-0.063-0.062-0.14-0.218-0.14c-0.202,0-0.513-0.016-0.699-0.047
	c-0.405-0.062-0.482-0.311-0.529-0.684c-0.061-0.575-0.077-1.616-0.077-2.829V2.907l1.724,0.031c1.229,0.016,1.586,0.42,1.617,0.762
	l0.016,0.139c0.015,0.203,0.047,0.265,0.156,0.265c0.077,0,0.108-0.078,0.124-0.218c0-0.341,0.031-1.321,0.031-1.601
	c0-0.202-0.015-0.279-0.109-0.279c-0.046,0-0.155,0.031-0.373,0.062c-0.202,0.031-0.497,0.062-0.933,0.062h-5.549
	c-0.45,0-0.964-0.016-1.368-0.062c-0.342-0.047-0.482-0.156-0.59-0.156c-0.078,0-0.125,0.078-0.156,0.249
	c-0.031,0.109-0.295,1.384-0.295,1.601c0,0.14,0.031,0.217,0.124,0.217s0.124-0.062,0.155-0.171c0.032-0.093,0.094-0.263,0.233-0.45
	c0.203-0.296,0.529-0.389,1.322-0.404l2.036-0.047V8.254L207.753,8.254z M215.653,8.254c0,1.275,0,2.332-0.062,2.876
	c-0.047,0.389-0.124,0.575-0.404,0.637c-0.124,0.031-0.28,0.047-0.482,0.047c-0.171,0-0.217,0.077-0.217,0.14
	c0,0.093,0.092,0.14,0.263,0.14c0.545,0,1.477-0.047,1.789-0.047c0.372,0,1.305,0.047,2.207,0.047c0.155,0,0.263-0.047,0.263-0.14
	c0-0.063-0.061-0.14-0.217-0.14c-0.202,0-0.513-0.016-0.699-0.047c-0.405-0.062-0.498-0.264-0.544-0.622
	c-0.062-0.559-0.062-1.616-0.062-2.891V5.923c0-2.006,0-2.378,0.03-2.799c0.032-0.466,0.14-0.652,0.514-0.715
	c0.155-0.031,0.264-0.046,0.404-0.046c0.139,0,0.217-0.031,0.217-0.156c0-0.077-0.109-0.108-0.279-0.108
	c-0.529,0-1.415,0.031-1.757,0.031c-0.389,0-1.321-0.031-1.835-0.031c-0.217,0-0.326,0.031-0.326,0.108
	c0,0.125,0.078,0.156,0.218,0.156c0.171,0,0.342,0.015,0.498,0.062c0.295,0.093,0.435,0.249,0.466,0.699
	c0.015,0.421,0.015,0.793,0.015,2.799V8.254L215.653,8.254z M223.571,8.254c0,1.213,0,2.254-0.062,2.814
	c-0.047,0.388-0.125,0.637-0.404,0.699c-0.109,0.031-0.281,0.047-0.482,0.047c-0.172,0-0.219,0.077-0.219,0.14
	c0,0.093,0.094,0.14,0.265,0.14c0.544,0,1.477-0.047,1.788-0.047c0.388,0,1.305,0.047,2.207,0.047c0.155,0,0.264-0.047,0.264-0.14
	c0-0.063-0.062-0.14-0.218-0.14c-0.202,0-0.513-0.016-0.699-0.047c-0.404-0.062-0.482-0.311-0.529-0.684
	c-0.062-0.575-0.077-1.616-0.077-2.829V2.907l1.726,0.031c1.227,0.016,1.585,0.42,1.616,0.762l0.016,0.139
	c0.015,0.203,0.047,0.265,0.155,0.265c0.078,0,0.108-0.078,0.124-0.218c0-0.341,0.031-1.321,0.031-1.601
	c0-0.202-0.016-0.279-0.108-0.279c-0.047,0-0.155,0.031-0.373,0.062c-0.203,0.031-0.498,0.062-0.933,0.062h-5.549
	c-0.451,0-0.964-0.016-1.368-0.062c-0.342-0.047-0.483-0.156-0.591-0.156c-0.078,0-0.124,0.078-0.155,0.249
	c-0.032,0.109-0.296,1.384-0.296,1.601c0,0.14,0.032,0.217,0.125,0.217s0.124-0.062,0.155-0.171c0.031-0.093,0.093-0.263,0.233-0.45
	c0.202-0.296,0.529-0.389,1.322-0.404l2.036-0.047L223.571,8.254L223.571,8.254z M231.286,7.866c0,1.911,0.544,2.891,1.244,3.497
	c0.995,0.871,2.41,0.902,3.124,0.902c0.886,0,1.927-0.141,2.891-0.949c1.151-0.948,1.306-2.502,1.306-3.979V5.923
	c0-2.006,0.016-2.378,0.031-2.799c0.031-0.466,0.125-0.652,0.497-0.715c0.171-0.031,0.249-0.046,0.405-0.046
	c0.155,0,0.233-0.047,0.233-0.14c0-0.093-0.093-0.124-0.28-0.124c-0.528,0-1.446,0.031-1.601,0.031
	c-0.015,0-0.932-0.031-1.632-0.031c-0.187,0-0.28,0.031-0.28,0.124c0,0.093,0.077,0.14,0.233,0.14s0.389,0.015,0.498,0.046
	c0.435,0.125,0.544,0.265,0.575,0.715c0.015,0.421,0.031,0.793,0.031,2.799v1.663c0,1.352-0.031,2.503-0.793,3.218
	c-0.544,0.528-1.244,0.699-1.834,0.699c-0.466,0-1.119-0.047-1.726-0.528c-0.668-0.529-1.041-1.275-1.041-3.203V5.923
	c0-2.006,0-2.378,0.031-2.799c0.031-0.466,0.14-0.652,0.497-0.715c0.172-0.031,0.249-0.046,0.405-0.046
	c0.14,0,0.218-0.047,0.218-0.14c0-0.093-0.094-0.124-0.296-0.124c-0.497,0-1.414,0.031-1.757,0.031
	c-0.403,0-1.321-0.031-2.052-0.031c-0.202,0-0.295,0.031-0.295,0.124c0,0.093,0.077,0.14,0.233,0.14c0.187,0,0.42,0.015,0.529,0.046
	c0.435,0.125,0.56,0.249,0.59,0.715c0.032,0.421,0.016,0.793,0.016,2.799L231.286,7.866L231.286,7.866z M245.653,8.254
	c0,1.213,0,2.254-0.063,2.814c-0.046,0.388-0.124,0.637-0.404,0.699c-0.108,0.031-0.279,0.047-0.482,0.047
	c-0.171,0-0.217,0.077-0.217,0.14c0,0.093,0.093,0.14,0.264,0.14c0.544,0,1.477-0.047,1.787-0.047c0.389,0,1.307,0.047,2.208,0.047
	c0.155,0,0.264-0.047,0.264-0.14c0-0.063-0.062-0.14-0.217-0.14c-0.202,0-0.514-0.016-0.699-0.047
	c-0.405-0.062-0.483-0.311-0.53-0.684c-0.062-0.575-0.078-1.616-0.078-2.829V2.907l1.727,0.031c1.227,0.016,1.585,0.42,1.616,0.762
	l0.016,0.139c0.015,0.203,0.046,0.265,0.154,0.265c0.078,0,0.11-0.078,0.125-0.218c0-0.341,0.032-1.321,0.032-1.601
	c0-0.202-0.016-0.279-0.109-0.279c-0.048,0-0.156,0.031-0.373,0.062c-0.203,0.031-0.498,0.062-0.933,0.062h-5.549
	c-0.451,0-0.964-0.016-1.368-0.062c-0.342-0.047-0.482-0.156-0.592-0.156c-0.077,0-0.124,0.078-0.154,0.249
	c-0.031,0.109-0.296,1.384-0.296,1.601c0,0.14,0.031,0.217,0.124,0.217c0.094,0,0.125-0.062,0.157-0.171
	c0.03-0.093,0.092-0.263,0.232-0.45c0.202-0.296,0.529-0.389,1.321-0.404l2.037-0.047L245.653,8.254L245.653,8.254z M92.846,26.575
	c0-0.093,0.032-0.108,0.094-0.108c0.233,0,1.85,0.015,2.192,0.046c0.419,0.031,0.59,0.296,0.652,0.482
	c0.063,0.156,0.094,0.311,0.094,0.404c0,0.093,0.047,0.187,0.125,0.187c0.139,0,0.155-0.187,0.155-0.296
	c0-0.093,0.015-0.699,0.046-0.963c0.047-0.42,0.109-0.777,0.109-0.855s-0.031-0.124-0.078-0.124c-0.077,0-0.108,0.062-0.186,0.14
	c-0.124,0.171-0.327,0.217-0.575,0.233c-0.202,0.015-0.389,0.015-0.622,0.015l-1.912,0.016c-0.078,0-0.094-0.047-0.094-0.124v-3.203
	c0-0.155,0.047-0.187,0.125-0.187l2.27,0.047c0.512,0.016,0.777,0.218,0.87,0.405c0.093,0.186,0.078,0.388,0.078,0.497
	c0,0.156,0.077,0.218,0.171,0.218c0.093,0,0.124-0.156,0.139-0.265c0.016-0.156,0.047-0.933,0.063-1.072
	c0.046-0.342,0.109-0.498,0.109-0.591c0-0.062-0.047-0.124-0.094-0.124c-0.078,0-0.14,0.062-0.217,0.077
	c-0.14,0.031-0.311,0.047-0.56,0.062c-0.326,0.016-3.357,0-3.886,0c-0.388,0-1.259-0.031-1.959-0.031
	c-0.217,0-0.326,0.031-0.326,0.125c0,0.093,0.109,0.14,0.233,0.14c0.202,0,0.436,0.015,0.544,0.047
	c0.436,0.108,0.56,0.264,0.591,0.715c0.016,0.419,0.016,0.792,0.016,2.797v2.332c0,1.274,0,2.254-0.063,2.813
	c-0.046,0.389-0.124,0.638-0.404,0.7c-0.124,0.031-0.28,0.047-0.482,0.047c-0.155,0-0.202,0.077-0.202,0.14
	c0,0.109,0.093,0.14,0.28,0.14c0.513,0,1.384-0.047,1.741-0.047c0.358,0,1.321,0.047,2.192,0.047c0.201,0,0.295-0.047,0.295-0.14
	c0-0.063-0.062-0.14-0.233-0.14c-0.187,0-0.482-0.016-0.669-0.047c-0.403-0.062-0.497-0.311-0.544-0.7
	c-0.062-0.559-0.078-1.492-0.078-2.766V26.575L92.846,26.575z M99.188,27.228c0,1.913,0.545,2.892,1.244,3.498
	c0.995,0.87,2.409,0.902,3.124,0.902c0.887,0,1.928-0.14,2.892-0.948c1.15-0.949,1.306-2.504,1.306-3.98v-1.415
	c0-2.005,0.016-2.378,0.031-2.797c0.031-0.467,0.124-0.653,0.497-0.715c0.171-0.032,0.249-0.047,0.404-0.047
	c0.156,0,0.233-0.047,0.233-0.14c0-0.094-0.093-0.125-0.28-0.125c-0.528,0-1.445,0.031-1.6,0.031c-0.016,0-0.933-0.031-1.633-0.031
	c-0.187,0-0.279,0.031-0.279,0.125c0,0.093,0.077,0.14,0.233,0.14c0.155,0,0.388,0.015,0.497,0.047
	c0.436,0.124,0.545,0.264,0.576,0.715c0.015,0.419,0.03,0.792,0.03,2.797v1.664c0,1.352-0.03,2.502-0.792,3.217
	c-0.544,0.529-1.244,0.7-1.835,0.7c-0.466,0-1.118-0.047-1.725-0.529c-0.668-0.528-1.041-1.274-1.041-3.202v-1.85
	c0-2.005,0-2.378,0.031-2.797c0.031-0.467,0.14-0.653,0.497-0.715c0.171-0.032,0.249-0.047,0.405-0.047
	c0.139,0,0.217-0.047,0.217-0.14c0-0.094-0.094-0.125-0.295-0.125c-0.498,0-1.415,0.031-1.757,0.031
	c-0.404,0-1.321-0.031-2.052-0.031c-0.202,0-0.295,0.031-0.295,0.125c0,0.093,0.077,0.14,0.233,0.14
	c0.186,0,0.419,0.015,0.528,0.047c0.436,0.124,0.56,0.248,0.591,0.715c0.031,0.419,0.015,0.792,0.015,2.797L99.188,27.228
	L99.188,27.228z M105.219,20.249c0.452,0,0.747-0.342,0.747-0.777s-0.326-0.684-0.731-0.684c-0.497,0-0.715,0.419-0.715,0.731
	C104.52,19.845,104.723,20.249,105.219,20.249 M101.94,20.249c0.451,0,0.747-0.342,0.747-0.777c0-0.42-0.328-0.668-0.731-0.668
	c-0.498,0-0.715,0.419-0.715,0.715C101.241,19.845,101.443,20.249,101.94,20.249 M111.514,27.617c0,1.212,0,2.254-0.063,2.813
	c-0.046,0.389-0.124,0.638-0.404,0.7c-0.124,0.031-0.279,0.047-0.482,0.047c-0.171,0-0.217,0.077-0.217,0.14
	c0,0.093,0.093,0.14,0.264,0.14c0.544,0,1.414-0.047,1.679-0.047c0.202,0,1.337,0.047,2.129,0.047c0.172,0,0.28-0.047,0.28-0.14
	c0-0.063-0.062-0.14-0.17-0.14c-0.172,0-0.467-0.016-0.669-0.047c-0.42-0.062-0.482-0.311-0.529-0.7
	c-0.062-0.559-0.077-1.585-0.077-2.813V27.43c0-0.077,0.046-0.108,0.108-0.108l1.229,0.031c0.093,0,0.17,0.015,0.248,0.093
	c0.171,0.202,0.746,1.088,1.29,1.803c0.762,1.026,1.275,1.648,1.865,1.943c0.358,0.187,0.731,0.265,1.493,0.265h1.305
	c0.171,0,0.265-0.031,0.265-0.14c0-0.063-0.062-0.14-0.171-0.14c-0.109,0-0.187,0-0.326-0.032c-0.218-0.046-0.7-0.108-1.462-0.87
	c-0.823-0.824-1.787-2.021-3-3.513c1.337-1.072,1.896-1.943,1.896-2.922c0-0.887-0.574-1.555-0.963-1.819
	c-0.731-0.482-1.725-0.56-2.596-0.56c-0.42,0-1.664,0.031-2.129,0.031c-0.281,0-1.151-0.031-1.866-0.031
	c-0.202,0-0.31,0.031-0.31,0.125c0,0.093,0.093,0.14,0.232,0.14c0.202,0,0.436,0.015,0.545,0.047
	c0.434,0.124,0.559,0.264,0.59,0.715c0.016,0.419,0.016,0.792,0.016,2.797V27.617L111.514,27.617z M113.255,22.379
	c0-0.109,0.031-0.156,0.124-0.187c0.14-0.031,0.467-0.047,0.808-0.047c0.808,0,2.083,0.482,2.083,2.347
	c0,1.089-0.466,1.664-0.886,1.959c-0.233,0.171-0.42,0.218-0.964,0.218c-0.342,0-0.746-0.031-1.041-0.125
	c-0.093-0.046-0.124-0.093-0.124-0.232L113.255,22.379L113.255,22.379z M129.047,24.213c0-2.363,0-2.798,0.032-3.296
	c0.031-0.543,0.155-0.808,0.574-0.886c0.187-0.031,0.28-0.046,0.436-0.046c0.125,0,0.217-0.031,0.217-0.14s-0.108-0.14-0.326-0.14
	c-0.529,0-1.507,0.047-1.881,0.047c-0.373,0-1.352-0.047-2.177-0.047c-0.232,0-0.341,0.031-0.341,0.14s0.093,0.14,0.264,0.14
	c0.218,0,0.483,0.015,0.607,0.046c0.513,0.109,0.637,0.358,0.668,0.886c0.031,0.498,0.031,0.933,0.031,3.296v2.736
	c0,1.43,0,2.657-0.077,3.31c-0.063,0.452-0.14,0.793-0.452,0.855c-0.139,0.031-0.326,0.063-0.559,0.063
	c-0.187,0-0.249,0.046-0.249,0.124c0,0.109,0.108,0.156,0.311,0.156c0.622,0,1.601-0.047,1.958-0.047
	c0.39,0,1.368,0.047,2.239,0.047c0.171,0,0.296-0.047,0.296-0.156c0-0.078-0.078-0.124-0.203-0.124
	c-0.201,0-0.543-0.032-0.762-0.063c-0.388-0.062-0.528-0.403-0.559-0.839c-0.047-0.669-0.047-1.896-0.047-3.326v-1.415h0.078
	l0.171,0.233c0.326,0.451,3.389,4.042,4.072,4.648c0.669,0.591,1.089,0.933,1.929,1.011c0.326,0.031,0.606,0.031,1.072,0.031h1.352
	c0.296,0,0.373-0.047,0.373-0.156c0-0.093-0.093-0.124-0.202-0.124c-0.187,0-0.497-0.047-0.964-0.234
	c-0.84-0.326-1.539-1.025-2.223-1.678c-0.606-0.576-3.653-3.855-4.212-4.586c0.528-0.559,2.875-2.891,3.358-3.358
	c0.668-0.652,1.197-0.978,1.678-1.165c0.296-0.109,0.684-0.171,0.902-0.171c0.155,0,0.234-0.031,0.234-0.14s-0.109-0.14-0.265-0.14
	c-0.481,0-1.337,0.047-1.819,0.047c-0.42,0-1.275-0.047-1.6-0.047c-0.172,0-0.249,0.031-0.249,0.14c0,0.093,0.062,0.124,0.202,0.155
	c0.155,0.031,0.217,0.14,0.217,0.312c0,0.263-0.342,0.652-0.778,1.165c-0.45,0.529-2.72,2.845-3.248,3.42h-0.078L129.047,24.213
	L129.047,24.213z M139.69,27.617c0,1.212,0,2.254-0.061,2.813c-0.047,0.389-0.125,0.638-0.405,0.7
	c-0.125,0.031-0.28,0.047-0.482,0.047c-0.17,0-0.217,0.077-0.217,0.14c0,0.093,0.093,0.14,0.264,0.14
	c0.279,0,0.622-0.016,0.948-0.031c0.327,0,0.622-0.016,0.777-0.016c0.404,0,0.917,0.016,1.586,0.031
	c0.668,0.031,1.492,0.047,2.518,0.047c0.513,0,0.637,0,0.731-0.343c0.077-0.264,0.187-1.165,0.187-1.461
	c0-0.14-0.016-0.311-0.125-0.311c-0.093,0-0.124,0.063-0.156,0.202c-0.093,0.545-0.249,0.824-0.59,0.98
	c-0.358,0.156-0.933,0.171-1.291,0.171c-1.399,0-1.818-0.202-1.849-1.104c-0.016-0.388,0-1.508,0-1.958v-1.058
	c0-0.077,0.015-0.139,0.078-0.139c0.341,0,1.896,0.031,2.145,0.062c0.512,0.046,0.684,0.248,0.761,0.513
	c0.032,0.171,0.032,0.342,0.047,0.482c0,0.062,0.032,0.109,0.124,0.109c0.124,0,0.14-0.187,0.14-0.296
	c0-0.093,0.031-0.622,0.062-0.886c0.078-0.668,0.109-0.886,0.109-0.963c0-0.078-0.047-0.14-0.109-0.14s-0.109,0.078-0.217,0.171
	c-0.124,0.14-0.327,0.171-0.654,0.202c-0.31,0.031-2.082,0.031-2.393,0.031c-0.078,0-0.093-0.062-0.093-0.14v-3.265
	c0-0.077,0.031-0.124,0.093-0.124c0.28,0,1.912,0.031,2.145,0.062c0.684,0.062,0.793,0.249,0.902,0.482
	c0.077,0.155,0.092,0.389,0.092,0.482c0,0.109,0.016,0.171,0.11,0.171c0.108,0,0.139-0.155,0.155-0.217
	c0.031-0.156,0.062-0.731,0.078-0.871c0.031-0.606,0.109-0.762,0.109-0.855c0-0.062-0.016-0.124-0.093-0.124
	c-0.063,0-0.141,0.046-0.218,0.062c-0.109,0.015-0.326,0.062-0.575,0.077c-0.265,0.016-3.296,0-3.731,0
	c-0.388,0-1.259-0.031-1.974-0.031c-0.202,0-0.311,0.031-0.311,0.125c0,0.093,0.093,0.14,0.233,0.14
	c0.202,0,0.435,0.015,0.544,0.047c0.436,0.124,0.56,0.264,0.59,0.715c0.016,0.419,0.016,0.792,0.016,2.797L139.69,27.617
	L139.69,27.617z M148.142,27.617c0,1.212,0,2.254-0.062,2.813c-0.047,0.389-0.125,0.638-0.404,0.7
	c-0.124,0.031-0.281,0.047-0.482,0.047c-0.172,0-0.219,0.077-0.219,0.14c0,0.093,0.094,0.14,0.265,0.14
	c0.544,0,1.415-0.047,1.679-0.047c0.202,0,1.337,0.047,2.13,0.047c0.171,0,0.279-0.047,0.279-0.14c0-0.063-0.062-0.14-0.171-0.14
	c-0.171,0-0.466-0.016-0.668-0.047c-0.42-0.062-0.482-0.311-0.529-0.7c-0.062-0.559-0.078-1.585-0.078-2.813V27.43
	c0-0.077,0.047-0.108,0.11-0.108l1.228,0.031c0.093,0,0.17,0.015,0.248,0.093c0.171,0.202,0.746,1.088,1.291,1.803
	c0.761,1.026,1.274,1.648,1.865,1.943c0.357,0.187,0.731,0.265,1.492,0.265h1.306c0.171,0,0.264-0.031,0.264-0.14
	c0-0.063-0.062-0.14-0.171-0.14s-0.187,0-0.327-0.032c-0.217-0.046-0.699-0.108-1.461-0.87c-0.823-0.824-1.787-2.021-3-3.513
	c1.337-1.072,1.897-1.943,1.897-2.922c0-0.887-0.576-1.555-0.964-1.819c-0.731-0.482-1.725-0.56-2.595-0.56
	c-0.421,0-1.664,0.031-2.13,0.031c-0.28,0-1.151-0.031-1.866-0.031c-0.202,0-0.311,0.031-0.311,0.125c0,0.093,0.093,0.14,0.233,0.14
	c0.203,0,0.436,0.015,0.545,0.047c0.435,0.124,0.559,0.264,0.591,0.715c0.015,0.419,0.015,0.792,0.015,2.797L148.142,27.617
	L148.142,27.617z M149.882,22.379c0-0.109,0.031-0.156,0.125-0.187c0.14-0.031,0.467-0.047,0.808-0.047
	c0.809,0,2.083,0.482,2.083,2.347c0,1.089-0.466,1.664-0.886,1.959c-0.233,0.171-0.419,0.218-0.963,0.218
	c-0.343,0-0.746-0.031-1.042-0.125c-0.094-0.046-0.125-0.093-0.125-0.232L149.882,22.379L149.882,22.379z M160.37,24.259h0.047
	c0.264,0.233,1.709,1.835,3.202,3.265c1.429,1.383,3.14,3.016,3.995,3.808c0.14,0.14,0.327,0.28,0.559,0.28
	c0.109,0,0.218-0.124,0.218-0.42l0.156-8.332c0.015-0.746,0.124-0.979,0.497-1.087c0.171-0.047,0.28-0.047,0.42-0.047
	c0.155,0,0.232-0.062,0.232-0.14c0-0.109-0.124-0.125-0.31-0.125c-0.669,0-1.182,0.031-1.337,0.031
	c-0.295,0-1.026-0.031-1.741-0.031c-0.202,0-0.342,0.016-0.342,0.125c0,0.078,0.046,0.14,0.218,0.14c0.187,0,0.513,0,0.715,0.078
	c0.326,0.124,0.45,0.357,0.465,1.165l0.141,5.876h-0.062c-0.203-0.187-2.021-2.052-2.954-2.969
	c-1.989-1.943-4.041-4.041-4.212-4.212c-0.233-0.234-0.42-0.436-0.591-0.436c-0.14,0-0.233,0.187-0.233,0.451l-0.125,7.834
	c-0.015,1.151-0.062,1.508-0.419,1.601c-0.187,0.047-0.435,0.063-0.622,0.063c-0.124,0-0.217,0.062-0.217,0.14
	c0,0.124,0.124,0.14,0.31,0.14c0.7,0,1.353-0.047,1.477-0.047c0.249,0,0.886,0.047,1.772,0.047c0.187,0,0.311-0.031,0.311-0.14
	c0-0.078-0.077-0.14-0.233-0.14c-0.217,0-0.482-0.016-0.715-0.094c-0.265-0.093-0.435-0.403-0.466-1.43L160.37,24.259L160.37,24.259
	z M172.465,27.617c0,1.212,0,2.254-0.062,2.813c-0.047,0.389-0.125,0.638-0.404,0.7c-0.124,0.031-0.28,0.047-0.482,0.047
	c-0.171,0-0.218,0.077-0.218,0.14c0,0.093,0.094,0.14,0.264,0.14c0.544,0,1.415-0.047,1.726-0.047c0.357,0,1.321,0.047,2.239,0.047
	c0.139,0,0.249-0.047,0.249-0.14c0-0.063-0.063-0.14-0.218-0.14c-0.203,0-0.498-0.016-0.7-0.047
	c-0.404-0.062-0.482-0.311-0.528-0.684c-0.063-0.575-0.063-1.617-0.063-2.829v-5.238c0-0.141,0.031-0.218,0.109-0.249
	c0.124-0.047,0.389-0.062,0.591-0.062c0.311,0,0.87,0.062,1.368,0.497c0.762,0.653,0.809,1.524,0.809,1.958
	c0,1.353-1.074,2.146-1.836,2.146c-0.295,0-0.45,0.062-0.45,0.171c0,0.093,0.094,0.14,0.171,0.14
	c0.062,0.015,0.342,0.015,0.404,0.015c1.943,0,3.435-1.336,3.435-3.202c0-0.715-0.388-1.305-0.684-1.586
	c-0.217-0.186-0.839-0.746-2.549-0.746c-0.622,0-1.71,0.031-2.269,0.031c-0.389,0-1.26-0.031-1.974-0.031
	c-0.202,0-0.311,0.031-0.311,0.125c0,0.093,0.093,0.14,0.233,0.14c0.202,0,0.435,0.015,0.544,0.047
	c0.435,0.124,0.559,0.264,0.59,0.715c0.016,0.419,0.016,0.792,0.016,2.797V27.617L172.465,27.617z M182.963,25.767
	c-0.047,0-0.093-0.015-0.093-0.093v-0.28c0-2.005,0-2.487,0.032-2.906c0.03-0.467,0.139-0.653,0.512-0.715
	c0.155-0.032,0.28-0.047,0.389-0.047c0.171,0,0.249-0.047,0.249-0.14c0-0.094-0.094-0.125-0.28-0.125
	c-0.544,0-1.493,0.031-1.818,0.031c-0.374,0-1.276-0.031-2.006-0.031c-0.186,0-0.295,0.031-0.295,0.125
	c0,0.093,0.093,0.14,0.233,0.14c0.202,0,0.435,0.015,0.544,0.047c0.435,0.124,0.559,0.264,0.59,0.715
	c0.016,0.419,0.016,0.792,0.016,2.797v2.332c0,1.212,0,2.254-0.062,2.813c-0.047,0.389-0.125,0.638-0.404,0.7
	c-0.124,0.031-0.28,0.047-0.482,0.047c-0.171,0-0.218,0.077-0.218,0.14c0,0.093,0.094,0.14,0.265,0.14
	c0.543,0,1.445-0.047,1.756-0.047c0.388,0,1.337,0.047,2.223,0.047c0.171,0,0.28-0.047,0.28-0.14c0-0.063-0.062-0.14-0.218-0.14
	c-0.202,0-0.513-0.016-0.699-0.047c-0.405-0.062-0.483-0.311-0.529-0.684c-0.062-0.575-0.078-1.586-0.078-2.798v-1.01
	c0-0.063,0.046-0.078,0.093-0.078h5.161c0.032,0,0.077,0.031,0.077,0.078v1.01c0,1.212,0,2.223-0.061,2.782
	c-0.047,0.389-0.124,0.638-0.404,0.7c-0.125,0.031-0.281,0.047-0.498,0.047c-0.155,0-0.217,0.077-0.217,0.14
	c0,0.093,0.108,0.14,0.295,0.14c0.529,0,1.492-0.047,1.803-0.047c0.373,0,1.274,0.047,2.16,0.047c0.172,0,0.28-0.047,0.28-0.14
	c0-0.063-0.077-0.14-0.217-0.14c-0.218,0-0.513-0.016-0.7-0.047c-0.419-0.062-0.497-0.311-0.543-0.684
	c-0.062-0.575-0.062-1.617-0.062-2.829v-2.332c0-2.005,0-2.378,0.03-2.797c0.032-0.467,0.14-0.653,0.497-0.715
	c0.172-0.032,0.296-0.047,0.405-0.047c0.155,0,0.248-0.047,0.248-0.14c0-0.094-0.093-0.125-0.294-0.125
	c-0.53,0-1.431,0.031-1.757,0.031c-0.358,0-1.321-0.031-2.052-0.031c-0.202,0-0.296,0.031-0.296,0.125
	c0,0.093,0.078,0.14,0.234,0.14c0.186,0,0.419,0.015,0.528,0.047c0.436,0.124,0.56,0.264,0.59,0.715
	c0.016,0.419,0.031,0.901,0.031,2.906v0.28c0,0.078-0.045,0.093-0.077,0.093H182.963L182.963,25.767z M196.416,29.109
	c0,0.218,0,0.762-0.047,1.321c-0.031,0.389-0.14,0.638-0.419,0.7c-0.125,0.031-0.296,0.047-0.482,0.047
	c-0.156,0-0.218,0.077-0.218,0.14c0,0.109,0.108,0.14,0.295,0.14c0.513,0,1.43-0.047,1.773-0.047c0.372,0,1.289,0.047,2.145,0.047
	c0.186,0,0.295-0.047,0.295-0.14c0-0.063-0.078-0.14-0.234-0.14c-0.186,0-0.481-0.016-0.683-0.047
	c-0.405-0.062-0.529-0.311-0.56-0.7c-0.031-0.559-0.031-1.103-0.031-1.321v-1.057c0-0.435-0.031-0.839,0.171-1.321
	c0.249-0.559,2.207-3.7,2.658-4.228c0.295-0.358,0.419-0.482,0.716-0.622c0.201-0.093,0.45-0.155,0.59-0.155
	c0.155,0,0.264-0.062,0.264-0.156c0-0.078-0.093-0.109-0.248-0.109c-0.266,0-1.167,0.031-1.462,0.031
	c-0.404,0-0.886-0.031-1.336-0.031c-0.156,0-0.234,0.031-0.234,0.125c0,0.109,0.124,0.124,0.249,0.155
	c0.233,0.047,0.295,0.171,0.295,0.296c0,0.17-0.062,0.404-0.202,0.699c-0.202,0.404-1.865,3.233-2.037,3.544
	c-0.232-0.373-2.02-3.466-2.269-3.87c-0.108-0.187-0.171-0.342-0.171-0.451c0-0.109,0.078-0.171,0.187-0.202
	c0.217-0.062,0.311-0.062,0.311-0.171c0-0.094-0.078-0.125-0.203-0.125c-0.621,0-1.258,0.031-1.554,0.031
	c-0.451,0-1.477-0.031-1.709-0.031c-0.172,0-0.265,0.031-0.265,0.125c0,0.093,0.093,0.14,0.203,0.14c0.17,0,0.403,0.078,0.574,0.171
	c0.264,0.14,0.544,0.45,0.886,0.932c0.482,0.7,2.347,3.607,2.44,3.809c0.187,0.388,0.312,0.668,0.312,1.383L196.416,29.109
	L196.416,29.109z M205.241,31.628c0.731,0,1.633-0.078,2.285-0.545c0.995-0.699,1.369-1.492,1.369-2.471
	c0-1.197-0.56-2.207-2.363-3.202l-0.56-0.311c-1.228-0.684-1.445-1.15-1.445-1.741c0-0.901,0.885-1.415,1.865-1.415
	c0.886,0,1.321,0.373,1.523,0.622c0.296,0.342,0.358,0.747,0.358,0.871c0,0.155,0.046,0.232,0.139,0.232
	c0.109,0,0.172-0.139,0.172-0.419c0-1.042,0.046-1.414,0.046-1.585c0-0.094-0.062-0.141-0.187-0.172
	c-0.356-0.093-1.056-0.217-1.942-0.217c-1.897,0-3.452,1.041-3.452,2.658c0,1.166,0.53,2.052,2.146,3l0.792,0.466
	c1.213,0.715,1.353,1.29,1.353,1.866c0,0.932-0.715,1.678-1.896,1.678c-0.856,0-1.881-0.326-2.177-1.305
	c-0.077-0.233-0.124-0.513-0.124-0.684c0-0.094-0.015-0.218-0.139-0.218c-0.11,0-0.172,0.14-0.172,0.342
	c-0.015,0.218-0.077,1.042-0.077,1.757c0,0.295,0.046,0.357,0.263,0.451C203.61,31.55,204.449,31.628,205.241,31.628
	 M211.506,27.617c0,1.274,0,2.332-0.062,2.876c-0.047,0.388-0.125,0.575-0.405,0.637c-0.124,0.031-0.279,0.047-0.481,0.047
	c-0.171,0-0.218,0.077-0.218,0.14c0,0.093,0.093,0.14,0.264,0.14c0.545,0,1.477-0.047,1.788-0.047c0.372,0,1.306,0.047,2.208,0.047
	c0.154,0,0.264-0.047,0.264-0.14c0-0.063-0.063-0.14-0.218-0.14c-0.202,0-0.514-0.016-0.699-0.047
	c-0.405-0.062-0.498-0.264-0.545-0.622c-0.061-0.559-0.061-1.617-0.061-2.891v-2.332c0-2.005,0-2.378,0.03-2.797
	c0.031-0.467,0.14-0.653,0.513-0.715c0.156-0.032,0.264-0.047,0.405-0.047c0.139,0,0.217-0.031,0.217-0.156
	c0-0.078-0.109-0.109-0.28-0.109c-0.528,0-1.415,0.031-1.756,0.031c-0.389,0-1.321-0.031-1.835-0.031
	c-0.218,0-0.326,0.031-0.326,0.109c0,0.125,0.078,0.156,0.218,0.156c0.17,0,0.342,0.015,0.498,0.062
	c0.294,0.093,0.434,0.249,0.465,0.7c0.016,0.419,0.016,0.792,0.016,2.797V27.617L211.506,27.617z M219.241,25.285
	c0-2.005,0-2.378,0.016-2.797c0.031-0.467,0.139-0.653,0.512-0.715c0.171-0.032,0.249-0.047,0.389-0.047
	c0.108,0,0.186-0.047,0.186-0.14c0-0.094-0.093-0.125-0.295-0.125c-0.451,0-1.43,0.031-1.756,0.031
	c-0.327,0-1.197-0.031-1.912-0.031c-0.202,0-0.311,0.031-0.311,0.125c0,0.093,0.093,0.14,0.233,0.14
	c0.202,0,0.435,0.015,0.544,0.047c0.435,0.124,0.559,0.264,0.591,0.715c0.015,0.419,0.015,0.792,0.015,2.797v2.332
	c0,1.212,0,2.254-0.062,2.813c-0.047,0.389-0.125,0.638-0.404,0.7c-0.125,0.031-0.28,0.047-0.482,0.047
	c-0.171,0-0.218,0.077-0.218,0.14c0,0.093,0.094,0.14,0.264,0.14c0.545,0,1.415-0.047,1.726-0.047c0.342,0,1.321,0.047,2.083,0.047
	c0.155,0,0.264-0.047,0.264-0.14c0-0.063-0.078-0.14-0.187-0.14c-0.171,0-0.481-0.016-0.668-0.047
	c-0.342-0.062-0.466-0.311-0.497-0.684c-0.031-0.575-0.031-1.617-0.031-2.829V26.42h0.062l0.14,0.186
	c0.295,0.405,2.922,3.452,3.513,3.965c0.591,0.512,1.041,0.793,1.771,0.855c0.297,0.031,0.545,0.031,0.949,0.031h1.196
	c0.25,0,0.327-0.047,0.327-0.14c0-0.078-0.077-0.14-0.186-0.14c-0.156,0-0.436,0-0.84-0.171c-0.73-0.295-1.259-0.871-1.865-1.415
	c-0.528-0.497-3.218-3.295-3.699-3.917c0.419-0.482,2.455-2.409,2.891-2.814c0.575-0.544,1.01-0.823,1.446-0.979
	c0.248-0.093,0.59-0.155,0.793-0.155c0.124,0,0.201-0.047,0.201-0.14c0-0.094-0.093-0.125-0.233-0.125
	c-0.42,0-1.181,0.031-1.601,0.031c-0.373,0-1.119-0.031-1.414-0.031c-0.141,0-0.218,0.031-0.218,0.125
	c0,0.078,0.062,0.109,0.186,0.14c0.125,0.031,0.187,0.124,0.187,0.264c0,0.233-0.296,0.544-0.684,0.979
	c-0.404,0.451-2.394,2.41-2.86,2.907h-0.062L219.241,25.285L219.241,25.285z M113.676,44.011c-0.047,0-0.094-0.031-0.094-0.109
	v-0.326c0-2.363,0-2.798,0.031-3.296c0.031-0.544,0.156-0.808,0.576-0.886c0.186-0.031,0.326-0.046,0.451-0.046
	c0.186,0,0.279-0.031,0.279-0.14s-0.108-0.14-0.326-0.14c-0.606,0-1.585,0.047-1.959,0.047c-0.419,0-1.399-0.047-2.238-0.047
	c-0.217,0-0.326,0.031-0.326,0.14s0.093,0.14,0.264,0.14c0.217,0,0.482,0.015,0.606,0.046c0.513,0.109,0.638,0.358,0.669,0.886
	c0.031,0.498,0.031,0.933,0.031,3.296v2.735c0,1.431,0,2.659-0.078,3.312c-0.062,0.45-0.14,0.792-0.451,0.854
	c-0.14,0.032-0.326,0.063-0.56,0.063c-0.186,0-0.248,0.047-0.248,0.124c0,0.108,0.109,0.155,0.31,0.155
	c0.622,0,1.602-0.047,1.959-0.047c0.436,0,1.415,0.047,2.425,0.047c0.187,0,0.311-0.047,0.311-0.155
	c0-0.077-0.078-0.124-0.249-0.124c-0.233,0-0.575-0.031-0.793-0.063c-0.466-0.062-0.559-0.404-0.606-0.838
	c-0.078-0.669-0.078-1.897-0.078-3.328v-1.367c0-0.078,0.047-0.094,0.094-0.094h5.938c0.047,0,0.093,0.031,0.093,0.094v1.367
	c0,1.431,0,2.659-0.078,3.312c-0.062,0.45-0.14,0.792-0.45,0.854c-0.14,0.032-0.327,0.063-0.56,0.063
	c-0.186,0-0.249,0.047-0.249,0.124c0,0.108,0.109,0.155,0.326,0.155c0.607,0,1.586-0.047,1.944-0.047
	c0.435,0,1.414,0.047,2.424,0.047c0.187,0,0.312-0.047,0.312-0.155c0-0.077-0.078-0.124-0.249-0.124
	c-0.233,0-0.575-0.031-0.793-0.063c-0.466-0.062-0.56-0.404-0.606-0.838c-0.078-0.669-0.078-1.897-0.078-3.328v-2.735
	c0-2.363,0-2.798,0.031-3.296c0.031-0.544,0.156-0.808,0.575-0.886c0.187-0.031,0.327-0.046,0.451-0.046
	c0.187,0,0.28-0.031,0.28-0.14s-0.109-0.14-0.326-0.14c-0.607,0-1.586,0.047-1.959,0.047c-0.42,0-1.399-0.047-2.238-0.047
	c-0.218,0-0.327,0.031-0.327,0.14s0.094,0.14,0.264,0.14c0.218,0,0.482,0.015,0.607,0.046c0.512,0.109,0.637,0.358,0.668,0.886
	c0.031,0.498,0.031,0.933,0.031,3.296v0.326c0,0.078-0.046,0.109-0.093,0.109H113.676L113.676,44.011z M126.082,46.98
	c0,1.213,0,2.253-0.062,2.813c-0.047,0.389-0.125,0.638-0.405,0.7c-0.124,0.031-0.279,0.047-0.482,0.047
	c-0.171,0-0.217,0.077-0.217,0.14c0,0.092,0.093,0.139,0.264,0.139c0.28,0,0.622-0.015,0.949-0.031c0.325,0,0.621-0.016,0.776-0.016
	c0.405,0,0.918,0.016,1.586,0.032c0.669,0.031,1.492,0.046,2.518,0.046c0.514,0,0.638,0,0.73-0.341
	c0.078-0.264,0.188-1.166,0.188-1.462c0-0.14-0.016-0.31-0.125-0.31c-0.093,0-0.125,0.062-0.155,0.202
	c-0.094,0.544-0.249,0.824-0.591,0.979c-0.357,0.155-0.933,0.171-1.29,0.171c-1.399,0-1.819-0.202-1.85-1.104
	c-0.016-0.389,0-1.507,0-1.959v-1.057c0-0.077,0.015-0.139,0.077-0.139c0.343,0,1.897,0.031,2.146,0.062
	c0.513,0.047,0.684,0.249,0.761,0.513c0.031,0.171,0.031,0.342,0.047,0.482c0,0.062,0.031,0.109,0.124,0.109
	c0.125,0,0.141-0.187,0.141-0.295c0-0.094,0.03-0.622,0.062-0.887c0.077-0.668,0.109-0.886,0.109-0.964s-0.047-0.14-0.109-0.14
	s-0.109,0.078-0.218,0.171c-0.125,0.14-0.326,0.172-0.653,0.203c-0.311,0.031-2.083,0.031-2.394,0.031
	c-0.078,0-0.093-0.062-0.093-0.14V41.71c0-0.077,0.031-0.124,0.093-0.124c0.28,0,1.912,0.031,2.145,0.062
	c0.684,0.062,0.793,0.249,0.902,0.482c0.078,0.156,0.093,0.389,0.093,0.482c0,0.109,0.016,0.171,0.109,0.171
	c0.109,0,0.14-0.156,0.155-0.218c0.031-0.155,0.063-0.73,0.078-0.87c0.032-0.607,0.109-0.762,0.109-0.855
	c0-0.062-0.016-0.124-0.093-0.124c-0.063,0-0.14,0.046-0.218,0.062c-0.109,0.016-0.327,0.062-0.575,0.078
	c-0.264,0.015-3.296,0-3.731,0c-0.389,0-1.259-0.031-1.974-0.031c-0.202,0-0.31,0.031-0.31,0.124c0,0.093,0.093,0.139,0.232,0.139
	c0.202,0,0.436,0.016,0.545,0.047c0.434,0.124,0.559,0.265,0.59,0.715c0.016,0.42,0.016,0.793,0.016,2.798L126.082,46.98
	L126.082,46.98z M134.508,46.98c0,1.275,0,2.332-0.062,2.875c-0.047,0.39-0.125,0.576-0.404,0.638
	c-0.124,0.031-0.28,0.047-0.483,0.047c-0.17,0-0.217,0.077-0.217,0.14c0,0.092,0.093,0.139,0.264,0.139
	c0.544,0,1.477-0.047,1.788-0.047c0.373,0,1.306,0.047,2.208,0.047c0.155,0,0.263-0.047,0.263-0.139c0-0.063-0.062-0.14-0.216-0.14
	c-0.203,0-0.514-0.016-0.701-0.047c-0.404-0.062-0.498-0.264-0.543-0.622c-0.063-0.559-0.063-1.616-0.063-2.891v-2.332
	c0-2.005,0-2.378,0.031-2.798c0.032-0.466,0.14-0.653,0.513-0.715c0.155-0.031,0.265-0.047,0.404-0.047
	c0.14,0,0.218-0.031,0.218-0.155c0-0.077-0.109-0.108-0.28-0.108c-0.528,0-1.415,0.031-1.756,0.031
	c-0.389,0-1.322-0.031-1.834-0.031c-0.218,0-0.327,0.031-0.327,0.108c0,0.124,0.078,0.155,0.217,0.155
	c0.171,0,0.343,0.016,0.498,0.063c0.295,0.093,0.435,0.249,0.466,0.699c0.016,0.42,0.016,0.793,0.016,2.798L134.508,46.98
	L134.508,46.98z M140.455,46.98c0,1.213,0,2.253-0.062,2.813c-0.047,0.389-0.125,0.638-0.404,0.7
	c-0.124,0.031-0.28,0.047-0.482,0.047c-0.171,0-0.218,0.077-0.218,0.14c0,0.092,0.094,0.139,0.265,0.139
	c0.28,0,0.621-0.015,0.948-0.031c0.326,0,0.622-0.016,0.777-0.016c0.342,0,0.839,0.032,1.383,0.078
	c0.544,0.032,1.135,0.078,1.633,0.078c2.518,0,3.963-0.933,4.585-1.554c0.777-0.762,1.493-2.021,1.493-3.684
	c0-1.57-0.607-2.674-1.291-3.358c-1.492-1.507-3.793-1.507-5.502-1.507c-0.824,0-1.804,0.031-2.223,0.031
	c-0.389,0-1.26-0.031-1.974-0.031c-0.202,0-0.311,0.031-0.311,0.124c0,0.093,0.093,0.139,0.233,0.139
	c0.202,0,0.435,0.016,0.544,0.047c0.435,0.124,0.559,0.265,0.59,0.715c0.016,0.42,0.016,0.793,0.016,2.798L140.455,46.98
	L140.455,46.98z M142.289,44.447c0-1.043,0-2.13,0.016-2.581c0-0.156,0.047-0.218,0.171-0.264c0.108-0.062,0.559-0.093,0.839-0.093
	c1.074,0,2.565,0.139,3.824,1.258c0.606,0.529,1.274,1.617,1.274,3.296c0,1.368-0.279,2.549-1.165,3.28
	c-0.824,0.683-1.741,0.902-2.984,0.902c-1.073,0-1.617-0.28-1.788-0.529c-0.109-0.14-0.14-0.607-0.155-0.933
	c-0.016-0.264-0.032-1.274-0.032-2.674L142.289,44.447L142.289,44.447z M152.693,46.98c0,1.213,0,2.253-0.062,2.813
	c-0.046,0.389-0.124,0.638-0.405,0.7c-0.124,0.031-0.279,0.047-0.481,0.047c-0.171,0-0.218,0.077-0.218,0.14
	c0,0.092,0.094,0.139,0.265,0.139c0.28,0,0.622-0.015,0.948-0.031c0.326,0,0.622-0.016,0.777-0.016c0.404,0,0.917,0.016,1.586,0.032
	c0.668,0.031,1.492,0.046,2.518,0.046c0.512,0,0.637,0,0.731-0.341c0.077-0.264,0.187-1.166,0.187-1.462
	c0-0.14-0.016-0.31-0.125-0.31c-0.094,0-0.125,0.062-0.156,0.202c-0.093,0.544-0.249,0.824-0.59,0.979
	c-0.359,0.155-0.933,0.171-1.291,0.171c-1.399,0-1.819-0.202-1.849-1.104c-0.016-0.389,0-1.507,0-1.959v-1.057
	c0-0.077,0.015-0.139,0.077-0.139c0.342,0,1.897,0.031,2.145,0.062c0.513,0.047,0.684,0.249,0.762,0.513
	c0.031,0.171,0.031,0.342,0.047,0.482c0,0.062,0.031,0.109,0.124,0.109c0.124,0,0.14-0.187,0.14-0.295
	c0-0.094,0.031-0.622,0.062-0.887c0.078-0.668,0.109-0.886,0.109-0.964s-0.047-0.14-0.109-0.14s-0.108,0.078-0.217,0.171
	c-0.125,0.14-0.327,0.172-0.654,0.203c-0.311,0.031-2.082,0.031-2.393,0.031c-0.078,0-0.093-0.062-0.093-0.14V41.71
	c0-0.077,0.03-0.124,0.093-0.124c0.28,0,1.912,0.031,2.145,0.062c0.684,0.062,0.793,0.249,0.902,0.482
	c0.077,0.156,0.093,0.389,0.093,0.482c0,0.109,0.016,0.171,0.109,0.171c0.108,0,0.139-0.156,0.155-0.218
	c0.031-0.155,0.062-0.73,0.078-0.87c0.03-0.607,0.108-0.762,0.108-0.855c0-0.062-0.015-0.124-0.093-0.124
	c-0.062,0-0.14,0.046-0.217,0.062c-0.109,0.016-0.327,0.062-0.576,0.078c-0.264,0.015-3.295,0-3.731,0
	c-0.387,0-1.258-0.031-1.973-0.031c-0.202,0-0.312,0.031-0.312,0.124c0,0.093,0.094,0.139,0.234,0.139
	c0.202,0,0.435,0.016,0.544,0.047c0.436,0.124,0.56,0.265,0.59,0.715c0.016,0.42,0.016,0.793,0.016,2.798L152.693,46.98
	L152.693,46.98z M162.953,44.648c0-2.005,0-2.378,0.032-2.798c0.031-0.466,0.14-0.653,0.513-0.715
	c0.155-0.031,0.373-0.047,0.529-0.047c0.17,0,0.248-0.046,0.248-0.139s-0.094-0.124-0.295-0.124c-0.529,0-1.648,0.031-1.974,0.031
	c-0.373,0-1.244-0.031-1.881-0.031c-0.203,0-0.296,0.031-0.296,0.124c0,0.093,0.078,0.139,0.233,0.139
	c0.172,0,0.343,0.016,0.451,0.047c0.436,0.124,0.56,0.265,0.592,0.715c0.014,0.42,0.014,0.793,0.014,2.798v2.332
	c0,1.213,0,2.253-0.061,2.813c-0.047,0.389-0.125,0.638-0.405,0.7c-0.124,0.031-0.28,0.047-0.482,0.047
	c-0.171,0-0.218,0.077-0.218,0.14c0,0.092,0.094,0.139,0.265,0.139c0.279,0,0.622-0.015,0.948-0.031
	c0.326,0,0.622-0.016,0.777-0.016c0.56,0,1.135,0.016,1.819,0.032c0.684,0.031,1.477,0.046,2.456,0.046
	c0.716,0,0.778-0.062,0.871-0.357c0.108-0.389,0.201-1.368,0.201-1.523s-0.031-0.296-0.124-0.296c-0.108,0-0.14,0.078-0.155,0.203
	c-0.031,0.248-0.171,0.621-0.342,0.792c-0.342,0.357-0.871,0.373-1.601,0.373c-1.057,0-1.586-0.077-1.819-0.279
	c-0.296-0.249-0.296-1.089-0.296-2.783V44.648L162.953,44.648z M169.538,46.98c0,1.213,0,2.253-0.062,2.813
	c-0.047,0.389-0.124,0.638-0.404,0.7c-0.125,0.031-0.28,0.047-0.481,0.047c-0.172,0-0.219,0.077-0.219,0.14
	c0,0.092,0.094,0.139,0.264,0.139c0.28,0,0.622-0.015,0.949-0.031c0.327,0,0.622-0.016,0.777-0.016c0.218,0,0.699,0.016,1.167,0.032
	c0.465,0.031,0.932,0.046,1.087,0.046c2.518,0,3.637-1.461,3.637-2.875c0-1.555-1.399-2.503-2.518-2.86
	c0.777-0.498,1.539-1.29,1.539-2.316c0-0.7-0.436-1.974-2.907-1.974c-0.466,0-1.368,0.031-2.052,0.031
	c-0.264,0-1.134-0.031-1.849-0.031c-0.202,0-0.312,0.031-0.312,0.124c0,0.093,0.094,0.139,0.234,0.139
	c0.203,0,0.435,0.016,0.544,0.047c0.435,0.124,0.56,0.265,0.591,0.715c0.015,0.42,0.015,0.793,0.015,2.798L169.538,46.98
	L169.538,46.98z M171.31,41.679c0-0.139,0.032-0.201,0.125-0.217c0.139-0.031,0.404-0.031,0.59-0.031c1.182,0,1.71,1.103,1.71,1.989
	c0,0.637-0.264,1.12-0.622,1.399c-0.232,0.187-0.622,0.234-1.072,0.234c-0.311,0-0.512-0.016-0.637-0.047
	c-0.047-0.016-0.094-0.031-0.094-0.14V41.679L171.31,41.679z M171.31,45.752c0-0.078,0.032-0.093,0.078-0.093h0.591
	c0.528,0,0.902,0.14,1.181,0.342c1.026,0.7,1.291,1.741,1.291,2.347c0,1.461-0.949,1.865-1.679,1.865
	c-0.311,0-0.622-0.015-0.98-0.155c-0.435-0.171-0.482-0.435-0.482-1.306V45.752L171.31,45.752z M178.613,46.98
	c0,1.213,0,2.253-0.062,2.813c-0.047,0.389-0.124,0.638-0.405,0.7c-0.124,0.031-0.279,0.047-0.481,0.047
	c-0.171,0-0.218,0.077-0.218,0.14c0,0.092,0.093,0.139,0.264,0.139c0.281,0,0.622-0.015,0.948-0.031
	c0.327,0,0.622-0.016,0.778-0.016c0.404,0,0.916,0.016,1.585,0.032c0.669,0.031,1.492,0.046,2.518,0.046
	c0.513,0,0.638,0,0.731-0.341c0.078-0.264,0.187-1.166,0.187-1.462c0-0.14-0.016-0.31-0.124-0.31c-0.094,0-0.125,0.062-0.156,0.202
	c-0.094,0.544-0.249,0.824-0.591,0.979c-0.358,0.155-0.933,0.171-1.29,0.171c-1.4,0-1.819-0.202-1.85-1.104
	c-0.016-0.389,0-1.507,0-1.959v-1.057c0-0.077,0.016-0.139,0.078-0.139c0.342,0,1.896,0.031,2.145,0.062
	c0.513,0.047,0.684,0.249,0.762,0.513c0.031,0.171,0.031,0.342,0.046,0.482c0,0.062,0.032,0.109,0.125,0.109
	c0.124,0,0.139-0.187,0.139-0.295c0-0.094,0.032-0.622,0.063-0.887c0.077-0.668,0.108-0.886,0.108-0.964s-0.047-0.14-0.108-0.14
	c-0.063,0-0.108,0.078-0.218,0.171c-0.124,0.14-0.327,0.172-0.653,0.203c-0.311,0.031-2.083,0.031-2.394,0.031
	c-0.077,0-0.093-0.062-0.093-0.14V41.71c0-0.077,0.031-0.124,0.093-0.124c0.28,0,1.913,0.031,2.145,0.062
	c0.684,0.062,0.793,0.249,0.902,0.482c0.078,0.156,0.094,0.389,0.094,0.482c0,0.109,0.016,0.171,0.108,0.171
	c0.109,0,0.14-0.156,0.156-0.218c0.031-0.155,0.062-0.73,0.078-0.87c0.03-0.607,0.108-0.762,0.108-0.855
	c0-0.062-0.016-0.124-0.094-0.124c-0.061,0-0.139,0.046-0.216,0.062c-0.109,0.016-0.327,0.062-0.576,0.078
	c-0.264,0.015-3.295,0-3.731,0c-0.388,0-1.259-0.031-1.974-0.031c-0.202,0-0.311,0.031-0.311,0.124c0,0.093,0.094,0.139,0.233,0.139
	c0.203,0,0.436,0.016,0.545,0.047c0.435,0.124,0.56,0.265,0.59,0.715c0.016,0.42,0.016,0.793,0.016,2.798V46.98L178.613,46.98z
	 M187.064,46.98c0,1.213,0,2.253-0.062,2.813c-0.047,0.389-0.125,0.638-0.404,0.7c-0.124,0.031-0.28,0.047-0.482,0.047
	c-0.171,0-0.217,0.077-0.217,0.14c0,0.092,0.093,0.139,0.264,0.139c0.543,0,1.414-0.047,1.679-0.047
	c0.202,0,1.336,0.047,2.129,0.047c0.171,0,0.28-0.047,0.28-0.139c0-0.063-0.063-0.14-0.171-0.14c-0.171,0-0.466-0.016-0.668-0.047
	c-0.42-0.062-0.482-0.311-0.529-0.7c-0.063-0.56-0.077-1.585-0.077-2.813v-0.186c0-0.079,0.045-0.109,0.108-0.109l1.228,0.03
	c0.093,0,0.171,0.016,0.248,0.094c0.171,0.202,0.746,1.088,1.291,1.803c0.762,1.027,1.275,1.648,1.865,1.944
	c0.358,0.185,0.73,0.263,1.492,0.263h1.306c0.171,0,0.265-0.031,0.265-0.139c0-0.063-0.063-0.14-0.172-0.14
	c-0.108,0-0.186,0-0.326-0.031c-0.217-0.047-0.699-0.109-1.461-0.87c-0.824-0.824-1.788-2.021-3-3.514
	c1.337-1.072,1.896-1.943,1.896-2.922c0-0.886-0.575-1.555-0.964-1.819c-0.73-0.482-1.725-0.559-2.595-0.559
	c-0.42,0-1.664,0.031-2.13,0.031c-0.28,0-1.151-0.031-1.865-0.031c-0.202,0-0.311,0.031-0.311,0.124
	c0,0.093,0.093,0.139,0.233,0.139c0.202,0,0.435,0.016,0.544,0.047c0.435,0.124,0.56,0.265,0.591,0.715
	c0.015,0.42,0.015,0.793,0.015,2.798L187.064,46.98L187.064,46.98z M188.806,41.741c0-0.108,0.03-0.155,0.124-0.186
	c0.139-0.031,0.466-0.046,0.808-0.046c0.808,0,2.083,0.481,2.083,2.347c0,1.088-0.467,1.662-0.886,1.958
	c-0.233,0.171-0.42,0.218-0.964,0.218c-0.342,0-0.746-0.031-1.041-0.124c-0.094-0.047-0.124-0.094-0.124-0.234L188.806,41.741
	L188.806,41.741z M205.671,48.472c0-0.653,0-1.181,0.015-1.585c0.016-0.467,0.156-0.653,0.529-0.715
	c0.156-0.031,0.264-0.047,0.372-0.047c0.094,0,0.172-0.062,0.172-0.14c0-0.108-0.093-0.124-0.28-0.124
	c-0.451,0-1.166,0.031-1.601,0.031c-0.404,0-1.384-0.031-2.098-0.031c-0.187,0-0.296,0.016-0.296,0.124
	c0,0.078,0.093,0.14,0.218,0.14c0.186,0,0.419,0.016,0.528,0.047c0.435,0.124,0.575,0.264,0.591,0.715
	c0.015,0.404,0.015,0.901,0.015,1.554v1.213c0,0.233-0.061,0.372-0.264,0.466c-0.326,0.14-0.606,0.14-0.963,0.14
	c-2.923,0-4.757-2.067-4.757-4.913c0-1.616,0.498-2.595,1.259-3.217c0.948-0.761,1.897-0.777,2.643-0.777
	c1.539,0,2.564,0.59,2.969,1.01c0.357,0.373,0.435,0.793,0.465,1.088c0.016,0.109,0.047,0.172,0.141,0.172
	c0.109,0,0.186-0.094,0.186-0.296c0-1.663,0.093-2.021,0.093-2.176c0-0.094-0.03-0.14-0.186-0.156
	c-0.326-0.015-0.808-0.093-1.088-0.139c-0.28-0.062-1.477-0.218-2.425-0.218c-1.151,0-2.378,0.093-3.684,0.855
	c-1.259,0.731-2.394,2.207-2.394,4.321c0,3.653,2.969,5.177,6.327,5.177c1.072,0,2.424-0.141,3.342-0.591
	c0.171-0.093,0.171-0.109,0.171-0.466V48.472L205.671,48.472z"/>
</svg>
